# xmcd
#
# Track frame offsets: 
#        150
#        18077
#        29592
#        48792
#        70347
#        87400
#        102142
#        119360
#        135900
#        154472
#        168022
#        189372
#        206030
#        223795
#        241345
#        260555
#        281392
#        293100
#        310937
#
# Disc length: 4322 seconds
#
# Revision: 0
# Processed by: cddbd v1.5.2PL0 Copyright (c) Steve Scherf et al.
# Submitted via: ExactAudioCopy v0.90b4
#
DISCID=0c10e013
DTITLE=Michael Buble - It's Time (Pirated CD)
DYEAR=2005
DGENRE=Jazz
TTITLE0=Feeling Good
TTITLE1=A Foggy Day (In London Town)
TTITLE2=You Don't Know Me
TTITLE3=Quando, Quando, Quando (Duet with Nelly Furtado)
TTITLE4=Home
TTITLE5=Can't Buy Me Love
TTITLE6=The More I See You
TTITLE7=Save the Last Dance for Me
TTITLE8=Try a Little Tenderness
TTITLE9=How Seet It Is
TTITLE10=Song for You (feat. Chris Botti)
TTITLE11=I've God You Under My Skin
TTITLE12=You and I
TTITLE13=Fever
TTITLE14=Moondance
TTITLE15=Kissing a Fool
TTITLE16=For Once in My Life
TTITLE17=How Can You Mend a Broken Heart
TTITLE18=Summer Wind
EXTD=
EXTT0=
EXTT1=
EXTT2=
EXTT3=
EXTT4=
EXTT5=
EXTT6=
EXTT7=
EXTT8=
EXTT9=
EXTT10=
EXTT11=
EXTT12=
EXTT13=
EXTT14=
EXTT15=
EXTT16=
EXTT17=
EXTT18=
PLAYORDER=
